<svg xmlns="http://www.w3.org/2000/svg" viewBox="0 0 512 512" width="512" height="512">
  <defs>
    <linearGradient id="bgGrad" x1="0" y1="0" x2="512" y2="512" gradientUnits="userSpaceOnUse">
      <stop offset="0%" stop-color="#0f172a"/>
      <stop offset="100%" stop-color="#1e3a8a"/>
    </linearGradient>

    <linearGradient id="coreGrad" x1="100" y1="400" x2="400" y2="100" gradientUnits="userSpaceOnUse">
      <stop offset="0%" stop-color="#0f172a"/>
      <stop offset="50%" stop-color="#1e3a8a"/>
      <stop offset="100%" stop-color="#3b82f6"/>
    </linearGradient>

    <linearGradient id="pathGrad" x1="0" y1="250" x2="512" y2="250" gradientUnits="userSpaceOnUse">
      <stop offset="0%" stop-color="#3b82f6"/>
      <stop offset="50%" stop-color="#06b6d4"/>
      <stop offset="100%" stop-color="#10b981"/>
    </linearGradient>

    <filter id="softGlow" height="300%" width="300%" x="-75%" y="-75%">
      <feGaussianBlur in="SourceAlpha" stdDeviation="12" result="blurred" />
      <feFlood flood-color="rgba(59, 130, 246, 0.5)" result="glowColor" />
      <feComposite in="glowColor" in2="blurred" operator="in" result="softGlow_colored" />
      <feMerge>
        <feMergeNode in="softGlow_colored"/>
        <feMergeNode in="SourceGraphic"/>
      </feMerge>
    </filter>
  </defs>

  <rect width="512" height="512" rx="120" fill="url(#bgGrad)" />

  <g transform="translate(56, 56) scale(1.6)">
      
      <path d="M40 200 L 90 150 L 200 180" stroke="#64748b" stroke-width="2" fill="none" opacity="0.3"/>
      <path d="M20 120 L 80 140 L 160 100" stroke="#64748b" stroke-width="2" fill="none" opacity="0.3"/>
      <circle cx="90" cy="150" r="4" fill="#64748b" opacity="0.4"/>
      <circle cx="160" cy="100" r="4" fill="#64748b" opacity="0.4"/>

      <path d="M120 30 L 190 80 L 190 160 L 120 210 L 50 160 L 50 80 Z" 
            fill="url(#coreGrad)" stroke="rgba(59, 130, 246, 0.4)" stroke-width="3"/>
      
      <path d="M50 80 L 120 30 L 190 80" stroke="rgba(255,255,255,0.3)" stroke-width="2" fill="none"/>

      <g filter="url(#softGlow)">
           <path d="M75 150 L 110 170 L 150 140 L 150 70 L 185 40" 
                 stroke="url(#pathGrad)" stroke-width="8" stroke-linecap="round" stroke-linejoin="round" fill="none"/>
      </g>

      <circle cx="185" cy="40" r="8" fill="#ffffff" filter="url(#softGlow)"/>
  </g>
</svg>
